<svg version="1.1" id="Layer_1" xmlns="http://www.w3.org/2000/svg" xmlns:xlink="http://www.w3.org/1999/xlink" x="0px" y="0px"
	 width="100%" height="100%" viewBox="0 0 128 128" enable-background="new 0 0 128 128" xml:space="preserve">
<g>
	<rect fill="#363C47" width="128" height="128"/>
	<linearGradient id="SVGID_1_" gradientUnits="userSpaceOnUse" x1="64.0005" y1="128" x2="64.0005" y2="4.882813e-004">
		<stop  offset="0" style="stop-color:#363C47;stop-opacity:0"/>
		<stop  offset="0.9944" style="stop-color:#363C47"/>
	</linearGradient>
	<rect opacity="0.5" fill="url(#SVGID_1_)" width="128" height="128"/>
</g>
<g>
	<path fill="#FFFFFF" d="M34.793,78.576v7.391c0,0.844-0.181,1.582-0.543,2.215s-0.886,1.119-1.57,1.461
		c-0.685,0.341-1.504,0.512-2.457,0.512c-1.417,0-2.519-0.375-3.305-1.125s-1.18-1.781-1.18-3.094v-7.359h1.875v7.227
		c0,0.942,0.219,1.638,0.656,2.086c0.438,0.447,1.109,0.672,2.016,0.672c1.761,0,2.641-0.925,2.641-2.773v-7.211H34.793z"/>
	<path fill="#FFFFFF" d="M45.121,89.998h-1.844v-5.313c0-0.667-0.134-1.164-0.402-1.492s-0.694-0.492-1.277-0.492
		c-0.776,0-1.344,0.229-1.703,0.688c-0.359,0.458-0.539,1.227-0.539,2.305v4.305H37.52v-8.641h1.438l0.258,1.133h0.094
		c0.261-0.412,0.63-0.729,1.109-0.953c0.479-0.225,1.011-0.336,1.594-0.336c2.073,0,3.109,1.055,3.109,3.164V89.998z"/>
	<path fill="#FFFFFF" d="M54.973,81.357v1.008l-1.477,0.273c0.136,0.182,0.247,0.406,0.336,0.672s0.133,0.547,0.133,0.844
		c0,0.891-0.308,1.591-0.922,2.102c-0.614,0.51-1.461,0.766-2.539,0.766c-0.276,0-0.526-0.021-0.75-0.063
		c-0.396,0.244-0.594,0.531-0.594,0.859c0,0.197,0.093,0.346,0.277,0.445c0.185,0.099,0.524,0.148,1.02,0.148h1.508
		c0.953,0,1.677,0.203,2.172,0.609s0.742,0.992,0.742,1.758c0,0.979-0.403,1.734-1.211,2.266s-1.974,0.797-3.5,0.797
		c-1.177,0-2.075-0.209-2.695-0.625c-0.62-0.418-0.93-1.012-0.93-1.781c0-0.531,0.168-0.979,0.504-1.34
		c0.336-0.362,0.806-0.613,1.41-0.754c-0.245-0.104-0.446-0.272-0.605-0.504c-0.159-0.232-0.238-0.476-0.238-0.73
		c0-0.323,0.091-0.597,0.273-0.82c0.183-0.225,0.453-0.445,0.813-0.664c-0.448-0.193-0.812-0.507-1.09-0.941
		c-0.278-0.436-0.418-0.944-0.418-1.527c0-0.938,0.296-1.664,0.887-2.18s1.434-0.773,2.527-0.773c0.245,0,0.501,0.017,0.77,0.051
		c0.269,0.033,0.47,0.068,0.605,0.105H54.973z M48.184,91.342c0,0.395,0.179,0.699,0.535,0.914c0.356,0.213,0.858,0.32,1.504,0.32
		c1,0,1.745-0.145,2.234-0.43c0.489-0.287,0.734-0.668,0.734-1.141c0-0.375-0.134-0.643-0.402-0.801
		c-0.269-0.16-0.767-0.238-1.496-0.238h-1.391c-0.526,0-0.944,0.123-1.254,0.371C48.339,90.584,48.184,90.92,48.184,91.342z
		 M48.973,84.154c0,0.541,0.14,0.958,0.418,1.25c0.278,0.291,0.679,0.438,1.199,0.438c1.063,0,1.594-0.568,1.594-1.703
		c0-0.563-0.132-0.996-0.395-1.301s-0.663-0.457-1.199-0.457c-0.531,0-0.934,0.15-1.207,0.453
		C49.109,83.136,48.973,83.576,48.973,84.154z"/>
	<path fill="#FFFFFF" d="M61.98,89.998l-0.367-1.203h-0.063c-0.417,0.525-0.836,0.884-1.258,1.074
		c-0.422,0.189-0.964,0.285-1.625,0.285c-0.849,0-1.512-0.229-1.988-0.688c-0.477-0.459-0.715-1.107-0.715-1.945
		c0-0.891,0.331-1.563,0.992-2.016s1.669-0.701,3.023-0.742l1.492-0.047v-0.461c0-0.553-0.129-0.965-0.387-1.238
		s-0.657-0.41-1.199-0.41c-0.442,0-0.867,0.064-1.273,0.195c-0.406,0.13-0.797,0.283-1.172,0.461l-0.594-1.313
		c0.469-0.245,0.981-0.432,1.539-0.559c0.558-0.128,1.083-0.191,1.578-0.191c1.099,0,1.929,0.239,2.488,0.719
		c0.56,0.479,0.84,1.231,0.84,2.258v5.82H61.98z M59.246,88.748c0.667,0,1.202-0.187,1.605-0.559
		c0.403-0.373,0.605-0.895,0.605-1.566v-0.75l-1.109,0.047c-0.864,0.031-1.493,0.176-1.887,0.434s-0.59,0.652-0.59,1.184
		c0,0.385,0.114,0.684,0.344,0.895S58.788,88.748,59.246,88.748z"/>
	<path fill="#FFFFFF" d="M70.238,90.154c-1.094,0-1.942-0.394-2.547-1.18h-0.109c0.073,0.729,0.109,1.172,0.109,1.328v3.539h-1.836
		V81.357h1.484c0.042,0.161,0.128,0.547,0.258,1.156h0.094c0.573-0.875,1.433-1.313,2.578-1.313c1.078,0,1.918,0.391,2.52,1.172
		s0.902,1.877,0.902,3.289c0,1.411-0.306,2.513-0.918,3.305C72.161,89.758,71.316,90.154,70.238,90.154z M69.793,82.701
		c-0.729,0-1.262,0.213-1.598,0.641c-0.336,0.427-0.504,1.109-0.504,2.047v0.273c0,1.052,0.167,1.813,0.5,2.285
		c0.333,0.471,0.878,0.707,1.633,0.707c0.636,0,1.125-0.261,1.469-0.781c0.344-0.521,0.516-1.264,0.516-2.227
		c0-0.969-0.171-1.702-0.512-2.199C70.956,82.949,70.454,82.701,69.793,82.701z"/>
	<path fill="#FFFFFF" d="M80.207,90.154c-1.094,0-1.942-0.394-2.547-1.18h-0.109c0.073,0.729,0.109,1.172,0.109,1.328v3.539h-1.836
		V81.357h1.484c0.042,0.161,0.128,0.547,0.258,1.156h0.094c0.573-0.875,1.433-1.313,2.578-1.313c1.078,0,1.918,0.391,2.52,1.172
		s0.902,1.877,0.902,3.289c0,1.411-0.306,2.513-0.918,3.305C82.13,89.758,81.285,90.154,80.207,90.154z M79.762,82.701
		c-0.729,0-1.262,0.213-1.598,0.641c-0.336,0.427-0.504,1.109-0.504,2.047v0.273c0,1.052,0.167,1.813,0.5,2.285
		c0.333,0.471,0.878,0.707,1.633,0.707c0.636,0,1.125-0.261,1.469-0.781c0.344-0.521,0.516-1.264,0.516-2.227
		c0-0.969-0.171-1.702-0.512-2.199C80.925,82.949,80.423,82.701,79.762,82.701z"/>
	<path fill="#FFFFFF" d="M89.566,90.154c-1.344,0-2.395-0.393-3.152-1.176c-0.758-0.784-1.137-1.863-1.137-3.238
		c0-1.412,0.352-2.521,1.055-3.328c0.703-0.808,1.669-1.211,2.898-1.211c1.141,0,2.042,0.346,2.703,1.039
		c0.661,0.692,0.992,1.646,0.992,2.859v0.992h-5.758c0.026,0.838,0.253,1.482,0.68,1.934c0.427,0.45,1.028,0.676,1.805,0.676
		c0.511,0,0.985-0.049,1.426-0.145c0.44-0.097,0.913-0.257,1.418-0.48v1.492c-0.448,0.213-0.901,0.364-1.359,0.453
		C90.679,90.109,90.155,90.154,89.566,90.154z M89.23,82.592c-0.583,0-1.051,0.185-1.402,0.555
		c-0.352,0.369-0.562,0.908-0.629,1.617h3.922c-0.011-0.714-0.183-1.254-0.516-1.621S89.813,82.592,89.23,82.592z"/>
	<path fill="#FFFFFF" d="M97.926,90.154c-1.078,0-1.919-0.391-2.523-1.172s-0.906-1.878-0.906-3.289c0-1.417,0.306-2.52,0.918-3.309
		s1.46-1.184,2.543-1.184c1.136,0,2,0.419,2.594,1.258h0.094c-0.089-0.62-0.133-1.109-0.133-1.469v-3.148h1.844v12.156h-1.438
		l-0.32-1.133h-0.086C99.923,89.725,99.062,90.154,97.926,90.154z M98.418,88.67c0.755,0,1.305-0.213,1.648-0.637
		c0.344-0.425,0.521-1.113,0.531-2.066v-0.258c0-1.089-0.177-1.862-0.531-2.32c-0.354-0.459-0.909-0.688-1.664-0.688
		c-0.646,0-1.144,0.262-1.492,0.785s-0.523,1.27-0.523,2.238c0,0.958,0.169,1.688,0.508,2.191
		C97.233,88.418,97.741,88.67,98.418,88.67z"/>
	<path fill="#FBEA5E" d="M42.551,109.197l-1.117-4.031c-0.136-0.426-0.38-1.418-0.734-2.977h-0.07
		c-0.302,1.406-0.542,2.404-0.719,2.992l-1.148,4.016H36.73l-2.422-8.641h1.875l1.102,4.258c0.25,1.053,0.427,1.953,0.531,2.703
		h0.047c0.052-0.379,0.132-0.816,0.238-1.309s0.199-0.859,0.277-1.105l1.313-4.547h2.016l1.273,4.547
		c0.078,0.256,0.176,0.646,0.293,1.172c0.117,0.527,0.187,0.936,0.207,1.227h0.063c0.078-0.641,0.261-1.535,0.547-2.688l1.117-4.258
		h1.844l-2.438,8.641H42.551z"/>
	<path fill="#FBEA5E" d="M48.426,98.268c0-0.328,0.09-0.58,0.27-0.758c0.18-0.176,0.437-0.266,0.77-0.266
		c0.323,0,0.574,0.09,0.754,0.266c0.18,0.178,0.27,0.43,0.27,0.758c0,0.313-0.09,0.559-0.27,0.738s-0.431,0.27-0.754,0.27
		c-0.333,0-0.59-0.09-0.77-0.27S48.426,98.58,48.426,98.268z M50.371,109.197h-1.836v-8.641h1.836V109.197z"/>
	<path fill="#FBEA5E" d="M55.91,109.354c-1.078,0-1.919-0.391-2.523-1.172s-0.906-1.877-0.906-3.289c0-1.416,0.306-2.52,0.918-3.309
		s1.46-1.184,2.543-1.184c1.136,0,2,0.42,2.594,1.258h0.094c-0.089-0.619-0.133-1.109-0.133-1.469v-3.148h1.844v12.156h-1.438
		l-0.32-1.133h-0.086C57.907,108.924,57.046,109.354,55.91,109.354z M56.402,107.869c0.755,0,1.305-0.211,1.648-0.637
		c0.344-0.424,0.521-1.113,0.531-2.066v-0.258c0-1.088-0.177-1.861-0.531-2.32c-0.354-0.457-0.909-0.688-1.664-0.688
		c-0.646,0-1.144,0.262-1.492,0.785s-0.523,1.27-0.523,2.238c0,0.959,0.169,1.689,0.508,2.191
		C55.218,107.619,55.726,107.869,56.402,107.869z"/>
	<path fill="#FBEA5E" d="M70.262,100.557v1.008l-1.477,0.273c0.136,0.184,0.247,0.406,0.336,0.672s0.133,0.547,0.133,0.844
		c0,0.891-0.308,1.592-0.922,2.102c-0.614,0.512-1.461,0.766-2.539,0.766c-0.276,0-0.526-0.02-0.75-0.063
		c-0.396,0.246-0.594,0.531-0.594,0.859c0,0.199,0.093,0.348,0.277,0.445c0.185,0.1,0.524,0.148,1.02,0.148h1.508
		c0.953,0,1.677,0.203,2.172,0.609s0.742,0.992,0.742,1.758c0,0.98-0.403,1.734-1.211,2.266s-1.974,0.797-3.5,0.797
		c-1.177,0-2.075-0.207-2.695-0.625c-0.62-0.416-0.93-1.01-0.93-1.781c0-0.531,0.168-0.977,0.504-1.34
		c0.336-0.361,0.806-0.613,1.41-0.754c-0.245-0.104-0.446-0.271-0.605-0.504c-0.159-0.23-0.238-0.475-0.238-0.73
		c0-0.322,0.091-0.596,0.273-0.82c0.183-0.223,0.453-0.445,0.813-0.664c-0.448-0.191-0.812-0.506-1.09-0.941
		c-0.278-0.434-0.418-0.943-0.418-1.527c0-0.938,0.296-1.664,0.887-2.18s1.434-0.773,2.527-0.773c0.245,0,0.501,0.018,0.77,0.051
		c0.269,0.035,0.47,0.07,0.605,0.105H70.262z M63.473,110.541c0,0.396,0.179,0.701,0.535,0.914c0.356,0.215,0.858,0.32,1.504,0.32
		c1,0,1.745-0.143,2.234-0.43c0.489-0.285,0.734-0.666,0.734-1.141c0-0.375-0.134-0.641-0.402-0.801
		c-0.269-0.158-0.767-0.238-1.496-0.238h-1.391c-0.526,0-0.944,0.125-1.254,0.371C63.628,109.785,63.473,110.119,63.473,110.541z
		 M64.262,103.354c0,0.543,0.14,0.959,0.418,1.25c0.278,0.293,0.679,0.438,1.199,0.438c1.063,0,1.594-0.566,1.594-1.703
		c0-0.563-0.132-0.996-0.395-1.301s-0.663-0.457-1.199-0.457c-0.531,0-0.934,0.152-1.207,0.453
		C64.398,102.336,64.262,102.775,64.262,103.354z"/>
	<path fill="#FBEA5E" d="M75.637,109.354c-1.344,0-2.395-0.391-3.152-1.176c-0.758-0.783-1.137-1.863-1.137-3.238
		c0-1.41,0.352-2.52,1.055-3.328c0.703-0.807,1.669-1.211,2.898-1.211c1.141,0,2.042,0.348,2.703,1.039
		c0.661,0.693,0.992,1.646,0.992,2.859v0.992h-5.758c0.026,0.84,0.253,1.484,0.68,1.934c0.427,0.451,1.028,0.676,1.805,0.676
		c0.511,0,0.985-0.047,1.426-0.145c0.44-0.096,0.913-0.256,1.418-0.48v1.492c-0.448,0.215-0.901,0.365-1.359,0.453
		C76.749,109.311,76.226,109.354,75.637,109.354z M75.301,101.791c-0.583,0-1.051,0.186-1.402,0.555
		c-0.352,0.371-0.562,0.91-0.629,1.617h3.922c-0.011-0.713-0.183-1.254-0.516-1.621S75.884,101.791,75.301,101.791z"/>
	<path fill="#FBEA5E" d="M84.301,107.869c0.448,0,0.896-0.07,1.344-0.211v1.383c-0.203,0.09-0.465,0.164-0.785,0.223
		c-0.32,0.061-0.652,0.09-0.996,0.09c-1.739,0-2.609-0.916-2.609-2.75v-4.656h-1.18v-0.813l1.266-0.672l0.625-1.828h1.133v1.922
		h2.461v1.391h-2.461v4.625c0,0.443,0.11,0.77,0.332,0.98S83.941,107.869,84.301,107.869z"/>
	<path fill="#FBEA5E" d="M93.176,106.736c0,0.844-0.308,1.492-0.922,1.941c-0.614,0.451-1.495,0.676-2.641,0.676
		c-1.151,0-2.075-0.174-2.773-0.523v-1.586c1.016,0.469,1.961,0.703,2.836,0.703c1.13,0,1.695-0.34,1.695-1.023
		c0-0.219-0.063-0.4-0.188-0.547c-0.125-0.145-0.331-0.297-0.617-0.453s-0.685-0.332-1.195-0.531
		c-0.995-0.385-1.668-0.77-2.02-1.156c-0.352-0.385-0.527-0.885-0.527-1.5c0-0.738,0.298-1.313,0.895-1.723
		c0.597-0.408,1.407-0.613,2.434-0.613c1.016,0,1.977,0.207,2.883,0.617l-0.594,1.383c-0.933-0.385-1.716-0.578-2.352-0.578
		c-0.969,0-1.453,0.277-1.453,0.828c0,0.271,0.126,0.5,0.379,0.688s0.804,0.445,1.652,0.773c0.714,0.277,1.231,0.529,1.555,0.758
		c0.323,0.23,0.563,0.494,0.719,0.793C93.098,105.963,93.176,106.32,93.176,106.736z"/>
</g>
<g>
	<path fill="#6ACDC1" d="M75.539,40.676v3.843c0,6.362-5.177,11.539-11.54,11.539c-6.362,0-11.538-5.176-11.538-11.539V31.057
		c0-1.591-1.294-2.885-2.886-2.885s-2.885,1.294-2.885,2.885v13.462c0,9.544,7.765,17.308,17.309,17.308
		c9.542,0,17.309-7.764,17.309-17.308V31.057c0-1.591-1.294-2.885-2.886-2.885c-1.59,0-2.884,1.294-2.884,2.885v3.737
		c0,0.53-0.431,0.96-0.962,0.96c-0.53,0-0.962-0.43-0.962-0.96v-3.737c0-2.651,2.157-4.808,4.808-4.808
		c2.651,0,4.808,2.157,4.808,4.808v13.462C83.23,55.122,74.604,63.75,64,63.75c-10.604,0-19.23-8.628-19.23-19.231V31.057
		c0-2.651,2.156-4.808,4.807-4.808c2.652,0,4.808,2.157,4.808,4.808v13.462c0,5.302,4.314,9.615,9.616,9.615
		c5.303,0,9.616-4.313,9.616-9.615v-1.921c0-1.592-1.291-2.884-2.885-2.884c-1.593,0-2.884,1.292-2.884,2.884v1.921
		c0,2.121-1.727,3.846-3.847,3.846c-2.121,0-3.847-1.725-3.847-3.846V31.057c0-5.833-4.744-10.577-10.577-10.577
		C43.746,20.48,39,25.225,39,31.057v13.462c0,13.787,11.215,25,25,25c13.786,0,25-11.214,25-25V31.057
		c0-5.833-4.745-10.577-10.577-10.577c-5.83,0-10.576,4.744-10.576,10.577v5.66c0,0.532,0.431,0.962,0.962,0.962
		c0.529,0,0.962-0.43,0.962-0.962v-5.66c0-4.772,3.882-8.654,8.652-8.654c4.772,0,8.654,3.882,8.654,8.654v13.462
		c0,12.725-10.353,23.077-23.078,23.077c-12.725,0-23.076-10.352-23.076-23.077V31.057c0-4.772,3.882-8.654,8.653-8.654
		c4.772,0,8.654,3.882,8.654,8.654v13.462c0,3.181,2.588,5.769,5.769,5.769c3.18,0,5.771-2.588,5.771-5.769v-1.921
		c0-0.53,0.43-0.96,0.96-0.96c0.531,0,0.961,0.43,0.961,0.96v1.921c0,4.241-3.449,7.692-7.692,7.692
		c-4.242,0-7.692-3.451-7.692-7.692V31.057c0-3.711-3.02-6.731-6.731-6.731c-3.711,0-6.73,3.021-6.73,6.731v13.462
		c0,11.663,9.49,21.155,21.154,21.155c11.665,0,21.155-9.492,21.155-21.155V31.057c0-3.711-3.02-6.731-6.731-6.731
		c-3.711,0-6.731,3.021-6.731,6.731v3.737c0.003,1.593,1.293,2.884,2.886,2.884s2.885-1.292,2.885-2.884v-3.737
		c0-0.531,0.431-0.962,0.961-0.962c0.532,0,0.962,0.431,0.962,0.962v13.461c0,8.483-6.902,15.384-15.385,15.384
		c-8.481,0-15.385-6.9-15.385-15.384V31.058c0-0.531,0.431-0.962,0.961-0.962c0.532,0,0.962,0.431,0.962,0.962v13.461
		c0,7.422,6.039,13.462,13.461,13.462c7.423,0,13.462-6.04,13.462-13.462v-3.843c0-0.532-0.431-0.962-0.962-0.962
		S75.539,40.144,75.539,40.676"/>
</g>
</svg>
